HIERARCHY
ROOT Hips
{
	OFFSET 0.000000 0.000000 0.000000
	CHANNELS 6 Xposition Yposition Zposition Yrotation Xrotation Zrotation
	JOINT Chest
	{
		OFFSET 0.000000 -0.009281 11.569106
		CHANNELS 3 Yrotation Xrotation Zrotation
		JOINT Chest2
		{
			OFFSET -0.000000 0.016865 9.269641
			CHANNELS 3 Yrotation Xrotation Zrotation
			JOINT Chest3
			{
				OFFSET -0.000000 0.000001 8.374491
				CHANNELS 3 Yrotation Xrotation Zrotation
				JOINT Chest4
				{
					OFFSET -0.000000 0.000001 8.374493
					CHANNELS 3 Yrotation Xrotation Zrotation
					JOINT Neck
					{
						OFFSET -0.000000 0.000002 12.152554
						CHANNELS 3 Yrotation Xrotation Zrotation
						JOINT Head
						{
							OFFSET -0.000000 0.040101 7.802319
							CHANNELS 3 Yrotation Xrotation Zrotation
							End Site
							{
								OFFSET -0.000000 0.020947 14.853096
							}
						}
					}
					JOINT RightCollar
					{
						OFFSET 2.894404 0.000001 6.791374
						CHANNELS 3 Yrotation Xrotation Zrotation
						JOINT RightShoulder
						{
							OFFSET 13.574684 0.000001 0.000000
							CHANNELS 3 Yrotation Xrotation Zrotation
							JOINT RightElbow
							{
								OFFSET 23.923903 0.000002 0.000000
								CHANNELS 3 Yrotation Xrotation Zrotation
								JOINT RightWrist
								{
									OFFSET 19.846718 0.012767 0.000000
									CHANNELS 3 Yrotation Xrotation Zrotation
									End Site
									{
										OFFSET 14.973145 0.000001 0.000000
									}
								}
							}
						}
					}
					JOINT LeftCollar
					{
						OFFSET -2.894404 0.000001 6.791374
						CHANNELS 3 Yrotation Xrotation Zrotation
						JOINT LeftShoulder
						{
							OFFSET -13.574684 -0.000001 0.000000
							CHANNELS 3 Yrotation Xrotation Zrotation
							JOINT LeftElbow
							{
								OFFSET -23.923903 -0.000002 0.000000
								CHANNELS 3 Yrotation Xrotation Zrotation
								JOINT LeftWrist
								{
									OFFSET -19.846718 0.012763 0.000000
									CHANNELS 3 Yrotation Xrotation Zrotation
									End Site
									{
										OFFSET -14.973145 -0.000001 0.000000
									}
								}
							}
						}
					}
				}
			}
		}
	}
	JOINT RightHip
	{
		OFFSET 9.469263 0.004643 0.045487
		CHANNELS 3 Yrotation Xrotation Zrotation
		JOINT RightKnee
		{
			OFFSET 0.000000 0.002661 -40.478676
			CHANNELS 3 Yrotation Xrotation Zrotation
			JOINT RightAnkle
			{
				OFFSET 0.000000 0.049106 -35.224068
				CHANNELS 3 Yrotation Xrotation Zrotation
				JOINT RightToe
				{
					OFFSET -0.000001 12.539529 -6.151390
					CHANNELS 3 Yrotation Xrotation Zrotation
					End Site
					{
						OFFSET -0.000001 5.044994 -1.291870
					}
				}
			}
		}
	}
	JOINT LeftHip
	{
		OFFSET -9.469263 0.004641 0.045487
		CHANNELS 3 Yrotation Xrotation Zrotation
		JOINT LeftKnee
		{
			OFFSET 0.000000 0.002661 -40.478676
			CHANNELS 3 Yrotation Xrotation Zrotation
			JOINT LeftAnkle
			{
				OFFSET 0.000000 0.049106 -35.224068
				CHANNELS 3 Yrotation Xrotation Zrotation
				JOINT LeftToe
				{
					OFFSET -0.000001 12.539529 -6.151390
					CHANNELS 3 Yrotation Xrotation Zrotation
					End Site
					{
						OFFSET -0.000001 5.044994 -1.291870
					}
				}
			}
		}
	}
}
MOTION
Frames: 9
Frame Time: 0.016667
13.879193 1.743525 82.269325 -6.008586 -3.430274 -107.957342 -0.272363 -5.210347 -0.483201 -0.251480 -2.449935 -0.051284 -0.251480 -2.449935 -0.051284 -0.188787 -1.837430 -0.039464 0.984220 -17.955490 -1.566216 1.287477 2.843395 -2.554421 10.440279 12.431839 1.364384 41.439649 -16.332333 -19.238570 -45.336842 -60.406241 111.752693 -65.253421 38.187690 34.052181 -7.125271 6.866499 -2.695285 -42.401299 -16.231291 24.404628 19.554260 -60.749642 -84.910098 38.094622 29.710684 -66.321246 7.526062 -9.992770 -13.971972 2.208637 -0.324167 0.548679 -4.751722 5.548064 0.577317 -0.128437 0.277362 -0.498527 11.403386 4.071436 34.223660 -4.946031 -0.521811 22.028748 5.359681 -16.227452 6.847323 0.109179 -0.314834 0.486264 
13.955981 1.761610 82.274979 -6.118556 -3.416231 -107.907051 -0.309205 -5.217391 -0.440926 -0.268544 -2.449465 -0.038134 -0.268544 -2.449465 -0.038132 -0.201531 -1.837083 -0.029672 1.072689 -17.873770 -1.625786 1.429374 2.996051 -2.634488 10.386680 12.275295 1.336066 41.481293 -16.239132 -19.116709 -45.384367 -60.458198 111.735700 -65.278563 38.191314 34.018327 -7.136879 6.857113 -2.712378 -42.350953 -16.201895 24.392677 19.512078 -60.766472 -84.925773 38.120771 29.738558 -66.372445 7.471876 -10.144188 -14.009826 2.187711 -0.315096 0.606050 -4.751097 5.586195 0.515897 -0.116853 0.282658 -0.492377 11.312848 3.908717 34.154279 -4.958300 -0.475114 21.974279 5.354430 -16.163274 6.812851 0.126060 -0.302130 0.496365 
14.039013 1.782351 82.282242 -6.239384 -3.399233 -107.873180 -0.350098 -5.233438 -0.381896 -0.284317 -2.450055 -0.023877 -0.284318 -2.450055 -0.023879 -0.213301 -1.837530 -0.019046 1.150506 -17.799123 -1.686503 1.551342 3.135464 -2.720154 10.346233 12.161562 1.300086 41.510102 -16.185836 -19.008843 -45.407852 -60.520961 111.712033 -65.309442 38.199493 33.992182 -7.150993 6.854982 -2.737384 -42.291992 -16.184227 24.369917 19.463922 -60.771533 -84.935048 38.134305 29.732281 -66.397382 7.412432 -10.303658 -14.027171 2.157838 -0.312570 0.645612 -4.755892 5.625725 0.452179 -0.096817 0.289411 -0.474142 11.204650 3.738047 34.053950 -4.961332 -0.425928 21.935417 5.334085 -16.092716 6.922403 0.143515 -0.293020 0.498843 
14.123892 1.808464 82.290070 -6.368596 -3.380181 -107.853864 -0.392458 -5.251163 -0.314237 -0.298381 -2.451200 -0.007970 -0.298381 -2.451200 -0.007968 -0.223784 -1.838397 -0.007170 1.214293 -17.736553 -1.745028 1.648327 3.252299 -2.806467 10.341152 12.130175 1.298395 41.526423 -16.189304 -18.976485 -45.422213 -60.577453 111.687035 -65.355956 38.201238 33.963676 -7.163613 6.853851 -2.764313 -42.237313 -16.154347 24.339323 19.397374 -60.790726 -84.910077 38.135391 29.673087 -66.413392 7.338312 -10.461544 -14.035013 2.132610 -0.331056 0.675999 -4.768459 5.674264 0.396604 -0.071478 0.293902 -0.452727 11.095233 3.545249 33.926195 -4.976588 -0.370876 21.910839 5.301296 -16.017150 7.054490 0.162097 -0.286411 0.495783 
14.214674 1.839814 82.297211 -6.516296 -3.357374 -107.862375 -0.444887 -5.282013 -0.227171 -0.308552 -2.450950 0.006420 -0.308552 -2.450950 0.006422 -0.231353 -1.838216 0.003580 1.261918 -17.691703 -1.795687 1.718386 3.336088 -2.883732 10.334727 12.072427 1.301195 41.535992 -16.179907 -18.932028 -45.465919 -60.620893 111.695463 -65.407025 38.216281 33.926943 -7.177274 6.858761 -2.785854 -42.199122 -16.117025 24.322321 19.287006 -60.816127 -84.813533 38.130675 29.565912 -66.450931 7.252399 -10.630155 -14.027557 2.098249 -0.365720 0.724223 -4.795649 5.738118 0.312945 -0.032532 0.286271 -0.412133 10.974558 3.311800 33.813852 -5.002519 -0.292818 21.900119 5.277084 -15.956456 7.114889 0.174167 -0.271174 0.469598 
14.308014 1.871210 82.302963 -6.647927 -3.343665 -107.863037 -0.475105 -5.304073 -0.161021 -0.314817 -2.449976 0.018068 -0.314817 -2.449976 0.018068 -0.236005 -1.837492 0.012288 1.289757 -17.665162 -1.834535 1.756191 3.385642 -2.945914 10.302463 11.968592 1.288307 41.544496 -16.143866 -18.838625 -45.548541 -60.653746 111.742824 -65.449946 38.235327 33.890200 -7.197074 6.857082 -2.808552 -42.189392 -16.048402 24.314895 19.163450 -60.845627 -84.664791 38.144656 29.420292 -66.479474 7.178281 -10.779189 -14.024270 2.062823 -0.417316 0.785019 -4.825976 5.798998 0.225292 0.004605 0.286760 -0.381067 10.861756 3.089295 33.725456 -5.026982 -0.217935 21.886443 5.228221 -15.854363 7.171161 0.209817 -0.284473 0.467084 
14.399278 1.901848 82.308533 -6.760474 -3.331506 -107.874881 -0.496947 -5.317984 -0.089281 -0.318026 -2.444698 0.024109 -0.318026 -2.444698 0.024110 -0.238386 -1.833537 0.016806 1.300620 -17.660101 -1.861215 1.767102 3.395125 -2.991440 10.276727 11.861336 1.273826 41.537106 -16.112088 -18.734125 -45.640663 -60.660215 111.804965 -65.498174 38.256590 33.833813 -7.208678 6.838898 -2.831301 -42.211010 -15.963561 24.309079 19.028041 -60.852942 -84.481257 38.207716 29.172838 -66.524028 7.104560 -10.898001 -13.989897 2.032783 -0.492708 0.823441 -4.866524 5.864981 0.140513 0.041993 0.288496 -0.351165 10.765347 2.888851 33.684861 -5.051724 -0.155712 21.876655 5.177960 -15.770362 7.230795 0.241947 -0.275703 0.460625 
14.480741 1.928842 82.314819 -6.841099 -3.333611 -107.852956 -0.487434 -5.305484 -0.055850 -0.317332 -2.435758 0.024574 -0.317332 -2.435758 0.024574 -0.237865 -1.826831 0.017163 1.295458 -17.682134 -1.876709 1.752636 3.354111 -3.021776 10.255882 11.777097 1.262463 41.519320 -16.098541 -18.652214 -45.712527 -60.647032 111.858438 -65.510605 38.251071 33.787477 -7.220197 6.800309 -2.855301 -42.259699 -15.876387 24.283484 18.955819 -60.835709 -84.307880 38.166496 29.005034 -66.530749 7.055395 -10.982497 -13.997826 2.012189 -0.574604 0.846934 -4.902974 5.908043 0.098204 0.066555 0.313235 -0.343763 10.697085 2.741261 33.691353 -5.070106 -0.120566 21.834679 5.126780 -15.674174 7.284092 0.278976 -0.272124 0.484438 
14.552213 1.958521 82.320740 -6.909568 -3.336927 -107.816442 -0.472125 -5.278225 -0.047499 -0.312636 -2.424554 0.022661 -0.312636 -2.424554 0.022664 -0.234353 -1.818428 0.015753 1.276378 -17.730772 -1.882970 1.716036 3.263519 -3.039784 10.249813 11.731192 1.253211 41.481289 -16.094921 -18.603385 -45.809126 -60.615265 111.956957 -65.519491 38.241775 33.746121 -7.238371 6.756765 -2.886939 -42.313869 -15.823366 24.240978 18.902511 -60.867033 -84.110003 38.264253 29.029964 -66.635927 7.015629 -11.054195 -14.017835 1.991195 -0.643984 0.859350 -4.936436 5.942539 0.064043 0.084482 0.333876 -0.336320 10.643360 2.609637 33.804952 -5.090939 -0.104853 21.710067 5.105009 -15.584026 7.164905 0.294386 -0.266301 0.498335 
